REM DIRINDEX 1\2,1\3,1\4,1\5,1\6
REM DIRNAME "folder01","folder02","folder03","folder04","folder05","folder06"
TITLE ""
FILE "Disc4Track69.mp3" MP3
  TRACK 01 AUDIO
    TITLE "3:cjc161_08274"
    INDEX 01 00:00:00
  TRACK 02 AUDIO
    TITLE "4:cjc161_08275"
    INDEX 01 00:01:10
  TRACK 03 AUDIO
    TITLE "5:cjc161_08276"
    INDEX 01 00:03:07
  TRACK 04 AUDIO
    TITLE "6:cjc161_08277"
    INDEX 01 00:04:26
  TRACK 05 AUDIO
    TITLE "0:"
    INDEX 01 00:06:15
  TRACK 06 AUDIO
    TITLE "3:cjc161_08278"
    INDEX 01 00:06:48
  TRACK 07 AUDIO
    TITLE "4:cjc161_08279"
    INDEX 01 00:07:69
  TRACK 08 AUDIO
    TITLE "5:cjc161_08280"
    INDEX 01 00:09:64
  TRACK 09 AUDIO
    TITLE "6:cjc161_08281"
    INDEX 01 00:11:06
  TRACK 10 AUDIO
    TITLE "0:"
    INDEX 01 00:14:40
  TRACK 11 AUDIO
    TITLE "3:cjc161_08282"
    INDEX 01 00:14:69
  TRACK 12 AUDIO
    TITLE "4:cjc161_08283"
    INDEX 01 00:16:13
  TRACK 13 AUDIO
    TITLE "5:cjc161_08284"
    INDEX 01 00:17:34
  TRACK 14 AUDIO
    TITLE "6:cjc161_08285"
    INDEX 01 00:18:47
  TRACK 15 AUDIO
    TITLE "0:"
    INDEX 01 00:22:33
  TRACK 16 AUDIO
    TITLE "3:cjc161_08286"
    INDEX 01 00:22:63
  TRACK 17 AUDIO
    TITLE "4:cjc161_08287"
    INDEX 01 00:24:09
  TRACK 18 AUDIO
    TITLE "5:cjc161_08288"
    INDEX 01 00:26:31
  TRACK 19 AUDIO
    TITLE "6:cjc161_08289"
    INDEX 01 00:27:48
  TRACK 20 AUDIO
    TITLE "0:"
    INDEX 01 00:32:38
  TRACK 21 AUDIO
    TITLE "3:cjc161_08290"
    INDEX 01 00:32:69
  TRACK 22 AUDIO
    TITLE "4:cjc161_08291"
    INDEX 01 00:34:09
  TRACK 23 AUDIO
    TITLE "5:cjc161_08292"
    INDEX 01 00:35:28
  TRACK 24 AUDIO
    TITLE "6:cjc161_08293"
    INDEX 01 00:36:43
  TRACK 25 AUDIO
    TITLE "0:"
    INDEX 01 00:38:23
  TRACK 26 AUDIO
    TITLE "3:cjc161_08294"
    INDEX 01 00:38:56
  TRACK 27 AUDIO
    TITLE "4:cjc161_08295"
    INDEX 01 00:39:73
  TRACK 28 AUDIO
    TITLE "5:cjc161_08296"
    INDEX 01 00:40:63
  TRACK 29 AUDIO
    TITLE "6:cjc161_08297"
    INDEX 01 00:42:03
  TRACK 30 AUDIO
    TITLE "0:"
    INDEX 01 00:46:28
  TRACK 31 AUDIO
    TITLE "3:cjc161_08298"
    INDEX 01 00:46:59
  TRACK 32 AUDIO
    TITLE "4:cjc161_08299"
    INDEX 01 00:47:69
  TRACK 33 AUDIO
    TITLE "5:cjc161_08300"
    INDEX 01 00:49:70
  TRACK 34 AUDIO
    TITLE "6:cjc161_08301"
    INDEX 01 00:50:75
  TRACK 35 AUDIO
    TITLE "0:"
    INDEX 01 00:54:30
  TRACK 36 AUDIO
    TITLE "3:cjc161_08302"
    INDEX 01 00:54:61
  TRACK 37 AUDIO
    TITLE "4:cjc161_08303"
    INDEX 01 00:56:03
  TRACK 38 AUDIO
    TITLE "5:cjc161_08304"
    INDEX 01 00:58:55
  TRACK 39 AUDIO
    TITLE "6:cjc161_08305"
    INDEX 01 00:59:70
  TRACK 40 AUDIO
    TITLE "0:"
    INDEX 01 01:03:15
  TRACK 41 AUDIO
    TITLE "3:cjc161_08306"
    INDEX 01 01:03:46
  TRACK 42 AUDIO
    TITLE "4:cjc161_08307"
    INDEX 01 01:04:55
  TRACK 43 AUDIO
    TITLE "5:cjc161_08308"
    INDEX 01 01:05:49
  TRACK 44 AUDIO
    TITLE "6:cjc161_08309"
    INDEX 01 01:06:56
  TRACK 45 AUDIO
    TITLE "0:"
    INDEX 01 01:09:33
  TRACK 46 AUDIO
    TITLE "3:cjc161_08310"
    INDEX 01 01:09:64
  TRACK 47 AUDIO
    TITLE "4:cjc161_08311"
    INDEX 01 01:10:74
  TRACK 48 AUDIO
    TITLE "5:cjc161_08312"
    INDEX 01 01:13:50
  TRACK 49 AUDIO
    TITLE "6:cjc161_08313"
    INDEX 01 01:14:56
  TRACK 50 AUDIO
    TITLE "0:"
    INDEX 01 01:18:75
  TRACK 51 AUDIO
    TITLE "3:cjc161_08314"
    INDEX 01 01:19:27
  TRACK 52 AUDIO
    TITLE "4:cjc161_08315"
    INDEX 01 01:20:35
  TRACK 53 AUDIO
    TITLE "5:cjc161_08316"
    INDEX 01 01:22:30
  TRACK 54 AUDIO
    TITLE "6:cjc161_08317"
    INDEX 01 01:23:33
  TRACK 55 AUDIO
    TITLE "0:"
    INDEX 01 01:28:44
  TRACK 56 AUDIO
    TITLE "3:cjc161_08318"
    INDEX 01 01:28:75
  TRACK 57 AUDIO
    TITLE "4:cjc161_08319"
    INDEX 01 01:30:19
  TRACK 58 AUDIO
    TITLE "5:cjc161_08320"
    INDEX 01 01:31:40
  TRACK 59 AUDIO
    TITLE "6:cjc161_08321"
    INDEX 01 01:32:58
  TRACK 60 AUDIO
    TITLE "0:"
    INDEX 01 01:37:47
  TRACK 61 AUDIO
    TITLE "3:cjc161_08322"
    INDEX 01 01:38:23
  TRACK 62 AUDIO
    TITLE "4:cjc161_08323"
    INDEX 01 01:39:20
  TRACK 63 AUDIO
    TITLE "5:cjc161_08324"
    INDEX 01 01:40:26
  TRACK 64 AUDIO
    TITLE "6:cjc161_08325"
    INDEX 01 01:41:41
  TRACK 65 AUDIO
    TITLE "0:"
    INDEX 01 01:46:26
  TRACK 66 AUDIO
    TITLE "3:cjc161_08326"
    INDEX 01 01:46:58
  TRACK 67 AUDIO
    TITLE "4:cjc161_08327"
    INDEX 01 01:47:73
  TRACK 68 AUDIO
    TITLE "5:cjc161_08328"
    INDEX 01 01:50:59
  TRACK 69 AUDIO
    TITLE "6:cjc161_08329"
    INDEX 01 01:51:73
  TRACK 70 AUDIO
    TITLE "0:"
    INDEX 01 01:55:51
  TRACK 71 AUDIO
    TITLE "3:cjc161_08330"
    INDEX 01 01:56:07
  TRACK 72 AUDIO
    TITLE "4:cjc161_08331"
    INDEX 01 01:57:12
  TRACK 73 AUDIO
    TITLE "5:cjc161_08332"
    INDEX 01 01:59:11
  TRACK 74 AUDIO
    TITLE "6:cjc161_08333"
    INDEX 01 02:00:15
  TRACK 75 AUDIO
    TITLE "0:"
    INDEX 01 02:01:71
